<svg width="24" height="24" viewBox="0 0 24 24" fill="none" xmlns="http://www.w3.org/2000/svg">
  <path
    d="M2.48499 12.9231L9.7853 20.1166L6.2699 12.9231H2.48499ZM12 21.274L16.0896 12.9231H7.91042L12 21.274ZM6.30506 11.5385L8.69553 7.38462H5.62542L2.25063 11.5385H6.30506ZM14.2147 20.1166L21.515 12.9231H17.7301L14.2147 20.1166ZM8.00417 11.5385H15.9958L13.6054 7.38462H10.3946L8.00417 11.5385ZM17.6949 11.5385H21.7494L18.3746 7.38462H15.3045L17.6949 11.5385ZM19.3472 6.28125L23.8469 11.8197C23.9563 11.9495 24.007 12.0992 23.9992 12.2686C23.9914 12.4381 23.925 12.5841 23.8 12.7067L12.5507 23.7837C12.4101 23.9279 12.2265 24 12 24C11.7735 24 11.5899 23.9279 11.4493 23.7837L0.199987 12.7067C0.0749951 12.5841 0.00859319 12.4381 0.000781199 12.2686C-0.00703079 12.0992 0.0437472 11.9495 0.153115 11.8197L4.65282 6.28125C4.79344 6.09375 4.99264 6 5.25044 6H18.7496C19.0074 6 19.2066 6.09375 19.3472 6.28125Z"
    fill="#EC9A29" />
</svg>